<svg id="Layer_1" data-name="Layer 1" xmlns="http://www.w3.org/2000/svg" viewBox="0 0 87.19 40.38"><defs><style>.cls-1{fill:#003056;}.cls-2{fill:#f2d03b;}</style></defs><title>logo</title><polygon class="cls-1" points="54.73 40.38 42.42 32.69 29.11 38.47 32.61 24.39 23 13.52 37.48 12.5 44.85 0 50.29 13.45 64.46 16.6 53.34 25.93 54.73 40.38"/><path class="cls-2" d="M19.28,36.47l-1-.61a4,4,0,0,1-1.5-1.75,6,6,0,0,1-.54-2.61V27.84a6,6,0,0,1,.54-2.61,4,4,0,0,1,1.5-1.75,4.13,4.13,0,0,1,2.25-.62,4,4,0,0,1,2,.49A4.29,4.29,0,0,1,24,24.74a5.73,5.73,0,0,1,.81,2.08H23a3,3,0,0,0-.53-1.11,2.78,2.78,0,0,0-.89-.76,2.33,2.33,0,0,0-1.05-.26,2.28,2.28,0,0,0-1.32.39,2.46,2.46,0,0,0-.88,1.11A4,4,0,0,0,18,27.84V31.5a4.08,4.08,0,0,0,.32,1.65,2.46,2.46,0,0,0,.88,1.11,2.28,2.28,0,0,0,1.32.39,2.39,2.39,0,0,0,1.05-.25,2.68,2.68,0,0,0,.89-.73A2.94,2.94,0,0,0,23,32.51h1.78A5.56,5.56,0,0,1,24,34.59,4.29,4.29,0,0,1,22.5,36a3.91,3.91,0,0,1-1.94.49Z" transform="translate(-16.27 -7.81)"/><path class="cls-2" d="M28.82,36.33H27.09V23h1.73Z" transform="translate(-16.27 -7.81)"/><path class="cls-2" d="M31.87,23h1.57l6,10.31-.21.24V23H41V36.33H39.39l-6-10.16.21-.24v10.4H31.87Z" transform="translate(-16.27 -7.81)"/><path class="cls-2" d="M44,23h1.73V36.33H44Zm.84,0h7.07v1.78H44.87Zm0,5.82H51V30.6H44.87Zm0,5.73h7.07v1.78H44.87Z" transform="translate(-16.27 -7.81)"/><path class="cls-2" d="M57.21,36.47l-.79-.18a6.17,6.17,0,0,1-1.49-.55,6.34,6.34,0,0,1-1.29-.92l1.07-1.43a4.8,4.8,0,0,0,1.56,1,5,5,0,0,0,1.83.33,3.46,3.46,0,0,0,2.08-.54,1.75,1.75,0,0,0,.74-1.51h0a1.66,1.66,0,0,0-.34-1.11,2,2,0,0,0-.86-.6,9,9,0,0,0-1.37-.37h-.11l-.13,0a12.51,12.51,0,0,1-2-.52A2.84,2.84,0,0,1,54.77,29a3.75,3.75,0,0,1-.55-2.18h0a4.06,4.06,0,0,1,.52-2.12,3.34,3.34,0,0,1,1.49-1.33,5.54,5.54,0,0,1,2.37-.46,5.2,5.2,0,0,1,1.3.16,6.4,6.4,0,0,1,1.26.46,6.77,6.77,0,0,1,1.22.78l-1,1.48A6,6,0,0,0,60,24.9a3.92,3.92,0,0,0-1.4-.28,3.1,3.1,0,0,0-2,.55,1.85,1.85,0,0,0-.69,1.54h0a1.53,1.53,0,0,0,.36,1.08,2.11,2.11,0,0,0,.89.59,15.4,15.4,0,0,0,1.5.39h.13l.09,0,.09,0a9.63,9.63,0,0,1,1.87.59,3,3,0,0,1,1.26,1.09,3.77,3.77,0,0,1,.5,2.07v0a4,4,0,0,1-.53,2.09A3.54,3.54,0,0,1,60.55,36a6,6,0,0,1-2.45.45Z" transform="translate(-16.27 -7.81)"/><path class="cls-2" d="M63.39,23h8.7v1.78h-8.7Zm3.49,1.09h1.73V36.33H66.88Z" transform="translate(-16.27 -7.81)"/><path class="cls-2" d="M76.38,23h1.47L82.4,36.33H80.53L77.12,25.58,73.7,36.33H71.83Zm-2.45,8.63h6.48v1.78H73.93Z" transform="translate(-16.27 -7.81)"/><path class="cls-2" d="M84.26,23H86V36.33H84.26ZM85,28.91h4.21a1.51,1.51,0,0,0,.87-.25,1.72,1.72,0,0,0,.59-.73,2.93,2.93,0,0,0,0-2.18,1.62,1.62,0,0,0-.59-.72,1.44,1.44,0,0,0-.87-.26H85V23h4.14a3.63,3.63,0,0,1,1.88.48,3.14,3.14,0,0,1,1.25,1.35,4.76,4.76,0,0,1,0,4A3.25,3.25,0,0,1,91,30.22a3.68,3.68,0,0,1-1.87.47H85Zm3.36,1.37,1.72-.42,3.15,6.47h-2Z" transform="translate(-16.27 -7.81)"/><path class="cls-2" d="M98.05,36.47l-.8-.18a6.17,6.17,0,0,1-1.49-.55,6.34,6.34,0,0,1-1.29-.92l1.08-1.43a4.76,4.76,0,0,0,1.55,1,5,5,0,0,0,1.84.33,3.44,3.44,0,0,0,2.07-.54,1.73,1.73,0,0,0,.74-1.51h0a1.71,1.71,0,0,0-.33-1.11,2,2,0,0,0-.87-.6,9,9,0,0,0-1.37-.37h-.11l-.12,0a12.39,12.39,0,0,1-2-.52A2.82,2.82,0,0,1,95.61,29a3.68,3.68,0,0,1-.55-2.18h0a4.16,4.16,0,0,1,.51-2.12,3.31,3.31,0,0,1,1.5-1.33,5.46,5.46,0,0,1,2.36-.46,5.2,5.2,0,0,1,1.3.16,6,6,0,0,1,1.26.46,6.84,6.84,0,0,1,1.23.78l-1,1.48a5.83,5.83,0,0,0-1.41-.84,3.84,3.84,0,0,0-1.4-.28,3.07,3.07,0,0,0-2,.55,1.83,1.83,0,0,0-.7,1.54h0a1.53,1.53,0,0,0,.36,1.08,2.14,2.14,0,0,0,.9.59,15.07,15.07,0,0,0,1.49.39h.13l.09,0,.1,0a9.86,9.86,0,0,1,1.87.59A3,3,0,0,1,103,30.52a3.69,3.69,0,0,1,.5,2.07v0a3.89,3.89,0,0,1-.53,2.09A3.48,3.48,0,0,1,101.38,36a6,6,0,0,1-2.44.45Z" transform="translate(-16.27 -7.81)"/></svg>